PathFileType	4	(X/Y/Z)	/Users/itak/Documents/Research/Walk-IL/dataset/trc/00353_00011.trc
DataRate	CameraRate	NumFrames	NumMarkers	Units	OrigDataRate	OrigDataStartFrame	OrigNumFrames
100.000000	100.000000	4	55	mm	100.000000	337	674
Frame#	Time	RPSI			LPSI			L3			STRN			T10			C7			CLAV			RBAK			LBAK			LSHO			LUPA			LAEL			LAOL			LWTS			LWPS			LFRA			LIFD			LHPS			LHTS			RSHO			RUPA			RAEL			RAOL			RWTS			RWPS			RFRA			RIFD			RHTS			RHPS			RBHD			LFHD			RFHD			LBHD			LHIP			RASI			LASI			LKNE			LTHI			LANK			LTIP			LTOE			LMT1			LMT5			LHEE			RKNE			RANK			RTIP			RTOE			RMT1			RMT5			RHEE			RHIP			RTHI			*53			*54			
		X1	Y1	Z1	X2	Y2	Z2	X3	Y3	Z3	X4	Y4	Z4	X5	Y5	Z5	X6	Y6	Z6	X7	Y7	Z7	X8	Y8	Z8	X9	Y9	Z9	X10	Y10	Z10	X11	Y11	Z11	X12	Y12	Z12	X13	Y13	Z13	X14	Y14	Z14	X15	Y15	Z15	X16	Y16	Z16	X17	Y17	Z17	X18	Y18	Z18	X19	Y19	Z19	X20	Y20	Z20	X21	Y21	Z21	X22	Y22	Z22	X23	Y23	Z23	X24	Y24	Z24	X25	Y25	Z25	X26	Y26	Z26	X27	Y27	Z27	X28	Y28	Z28	X29	Y29	Z29	X30	Y30	Z30	X31	Y31	Z31	X32	Y32	Z32	X33	Y33	Z33	X34	Y34	Z34	X35	Y35	Z35	X36	Y36	Z36	X37	Y37	Z37	X38	Y38	Z38	X39	Y39	Z39	X40	Y40	Z40	X41	Y41	Z41	X42	Y42	Z42	X43	Y43	Z43	X44	Y44	Z44	X45	Y45	Z45	X46	Y46	Z46	X47	Y47	Z47	X48	Y48	Z48	X49	Y49	Z49	X50	Y50	Z50	X51	Y51	Z51	X52	Y52	Z52	X53	Y53	Z53	X54	Y54	Z54	X55	Y55	Z55	

338	3.37	-318.4109191894531	937.2593383789062	-189.4576263427734	-380.1722717285156	942.5736083984375	-304.6267700195312	-346.2485961914062	1002.062377929688	-232.8868560791016	-143.8749847412109	1181.5498046875	-357.2280578613281	-349.1436462402344	1121.218383789062	-227.0785522460938	-311.6658325195312	1367.227416992188	-259.4519958496094	-179.318603515625	1308.249633789062	-337.6721801757812	-320.6671752929688	1229.126342773438	-175.3403167724609	-377.3764953613281	1331.220947265625	-336.8559875488281	-336.8777770996094	1345.9365234375	-430.3569641113281	-405.937255859375	1233.090454101562	-467.2407531738281	-439.5668640136719	1032.201782226562	-475.6333312988281	-446.8117065429688	1025.224731445312	-391.3716430664062	-395.8524475097656	770.8197631835938	-491.84423828125	-462.7596740722656	777.2960205078125	-506.4686889648438	-455.8843994140625	928.6289672851562	-484.8565979003906	-424.9036560058594	616.411376953125	-476.9071960449219	-479.2438049316406	709.46484375	-495.8510437011719	-416.3866271972656	695.6892700195312	-508.6686706542969	-179.6138916015625	1353.819213867188	-150.6740570068359	-156.3633880615234	1288.62939453125	-91.11831665039062	-114.1437454223633	1022.331420898438	-60.38367080688477	-197.4260101318359	1011.575927734375	-101.283561706543	-36.87965393066406	834.5035400390625	-213.2905120849609	-13.09679794311523	804.5319213867188	-146.9338531494141	-81.92392730712891	959.5355834960938	-78.76052856445312	7.162002086639404	674.4398193359375	-260.938720703125	11.45681858062744	747.5440673828125	-248.1057891845703	11.33948516845703	729.98095703125	-180.6484527587891	-233.7908020019531	1572.0771484375	-220.0132446289062	-117.59375	1572.194091796875	-393.5552368164062	-89.96131134033203	1571.828002929688	-296.3056030273438	-299.4926147460938	1569.870239257812	-349.8882141113281	-347.26220703125	894.4066162109375	-440.068115234375	-124.519416809082	898.2222290039062	-211.8042907714844	-213.3888702392578	920.554931640625	-433.4662475585938	-159.8792572021484	471.1419677734375	-529.4337768554688	-218.37890625	595.57275390625	-510.7698364257812	-158.3955688476562	40.57631301879883	-566.16015625	-152.9908294677734	251.2538909912109	-557.4450073242188	54.71846771240234	62.11278915405273	-546.7780151367188	-1.454715490341187	40.57968521118164	-492.1167907714844	-37.04949951171875	47.66860198974609	-600.4566650390625	-175.4728393554688	30.57677459716797	-493.1903991699219	-262.8833618164062	418.0584106445312	-186.5909729003906	-515.9342041015625	95.99751281738281	-90.33262634277344	-323.1270751953125	305.0960083007812	-185.3998260498047	-475.7925720214844	41.20554733276367	-267.9330749511719	-532.4434814453125	52.51882934570312	-246.0337219238281	-456.1376647949219	43.95444107055664	-155.3077392578125	-575.3369750976562	130.4126586914062	-81.46821594238281	-202.1708831787109	873.0020141601562	-129.6654357910156	-171.8014678955078	660.042236328125	-172.7905120849609	nan	nan	nan	nan	nan	nan	
339	3.38	-311.2314453125	937.129638671875	-197.2003631591797	-371.0755615234375	943.0449829101562	-313.5268249511719	-338.1849670410156	1001.497985839844	-241.4720153808594	-135.3794097900391	1182.487060546875	-361.9453125	-342.9548034667969	1120.897827148438	-235.7523193359375	-306.1681823730469	1367.317138671875	-267.56787109375	-171.8379058837891	1308.998291015625	-343.0660705566406	-316.2937622070312	1228.978149414062	-183.7609405517578	-369.9156799316406	1331.0849609375	-346.4202270507812	-327.5577087402344	1346.136108398438	-439.0133361816406	-395.3609924316406	1233.10693359375	-477.6539611816406	-428.5941772460938	1032.235229492188	-487.7390441894531	-436.9997253417969	1024.680419921875	-403.6602172851562	-383.9069213867188	771.0529174804688	-505.3857727050781	-450.93310546875	777.5269775390625	-520.2831420898438	-444.5783996582031	928.6325073242188	-497.7655944824219	-413.0944213867188	616.5198974609375	-491.9271240234375	-467.3580932617188	709.68017578125	-510.4802856445312	-404.438720703125	696.1182861328125	-522.9263916015625	-176.2696838378906	1354.168090820312	-156.0319671630859	-154.3626098632812	1289.01416015625	-95.74510192871094	-114.2807006835938	1022.61328125	-64.13157653808594	-196.3369903564453	1012.041564941406	-107.7319717407227	-35.15383911132812	829.2918090820312	-209.6602935791016	-14.2032413482666	800.9448852539062	-141.6563262939453	-82.207275390625	959.0640869140625	-80.46981048583984	7.464394569396973	667.0679321289062	-250.8804779052734	12.50052356719971	740.384033203125	-240.0670623779297	9.943709373474121	725.0015869140625	-172.257080078125	-228.3287506103516	1572.770751953125	-226.0619201660156	-109.0675201416016	1572.465942382812	-397.721435546875	-83.17281341552734	1571.957275390625	-299.9575500488281	-291.6357727050781	1570.8359375	-357.2312316894531	-335.7423400878906	895.0994873046875	-448.4811401367188	-116.7004776000977	898.5108642578125	-216.3962554931641	-202.1581268310547	921.03466796875	-439.2077026367188	-147.8829345703125	471.1946411132812	-532.83154296875	-205.7969665527344	595.5870971679688	-514.9285278320312	-157.2962493896484	40.83283996582031	-567.048828125	-145.0704650878906	251.1734924316406	-560.229736328125	56.84770584106445	56.36517333984375	-547.41650390625	0.02598566003143787	36.82193374633789	-492.6373596191406	-35.54340362548828	44.49062728881836	-601.0471801757812	-174.7365264892578	31.83808898925781	-494.0302734375	-252.8430480957031	417.6729431152344	-192.8426208496094	-513.0640258789062	101.1828536987305	-94.16653442382812	-314.4097595214844	305.7801208496094	-189.7194061279297	-475.4198303222656	41.11645889282227	-268.4736328125	-530.7996826171875	53.71982955932617	-247.86767578125	-454.9006042480469	44.54475402832031	-156.5293121337891	-570.8790893554688	138.2028045654297	-86.97618103027344	-196.1900329589844	872.6947021484375	-135.2372589111328	-163.4930572509766	659.957763671875	-178.2332153320312	nan	nan	nan	nan	nan	nan	
340	3.39	-304.0005798339844	937.1897583007812	-204.6842041015625	-361.8794860839844	943.8150024414062	-322.1033630371094	-330.0692443847656	1001.247985839844	-249.8341064453125	-126.7662582397461	1183.644775390625	-366.40966796875	-336.6501159667969	1120.852294921875	-244.3326110839844	-300.5447387695312	1367.67333984375	-275.6889343261719	-164.2474517822266	1309.986206054688	-348.3176574707031	-311.8367004394531	1229.120239257812	-192.1986236572266	-362.238037109375	1331.210205078125	-356.0207824707031	-317.9650268554688	1346.552124023438	-447.6203918457031	-384.3581848144531	1233.357543945312	-488.1354370117188	-417.1224670410156	1032.528198242188	-499.9555358886719	-426.8587646484375	1024.399780273438	-416.0961608886719	-371.3779907226562	771.6257934570312	-518.8790283203125	-438.5365295410156	777.9882202148438	-534.177001953125	-432.748779296875	928.8958740234375	-510.7756652832031	-400.84228515625	616.869384765625	-506.6529541015625	-454.9815979003906	710.1197509765625	-525.1018676757812	-391.9627075195312	696.7345581054688	-536.9896240234375	-172.9480895996094	1354.806030273438	-161.3643951416016	-152.3925170898438	1289.687866210938	-100.3848037719727	-114.7210159301758	1023.211730957031	-67.95401763916016	-195.2811431884766	1012.877990722656	-114.4876403808594	-33.77671051025391	824.4607543945312	-205.6194763183594	-15.93928146362305	797.8743896484375	-136.0358276367188	-82.84860992431641	958.9635009765625	-82.18533325195312	7.274713516235352	660.3036499023438	-240.1104125976562	13.11080265045166	733.7220458984375	-231.3511505126953	7.816983222961426	720.5971069335938	-163.323486328125	-222.8593139648438	1573.6611328125	-232.0475769042969	-100.4946365356445	1572.95458984375	-401.7216186523438	-76.41093444824219	1572.289672851562	-303.4478454589844	-283.7191772460938	1571.989379882812	-364.5172729492188	-324.192138671875	896.1991577148438	-456.5581359863281	-108.9790649414062	899.067138671875	-220.7752227783203	-190.8854522705078	921.7291870117188	-444.6803283691406	-136.331787109375	471.4163513183594	-536.3854370117188	-193.3491821289062	596.0984497070312	-519.399658203125	-156.5257110595703	41.10615921020508	-567.8735961914062	-137.9047241210938	251.1540679931641	-563.110595703125	58.35425567626953	51.75987243652344	-548.841796875	1.237020134925842	34.09258270263672	-493.7131958007812	-34.69591903686523	41.99782180786133	-602.13232421875	-174.0195770263672	33.01404571533203	-494.7722778320312	-241.8911743164062	417.4115295410156	-199.3691558837891	-509.4930725097656	106.7410659790039	-98.62281036376953	-304.8053894042969	306.7801818847656	-194.2882385253906	-474.93408203125	40.91874694824219	-269.2095336914062	-528.7922973632812	55.15547561645508	-250.0389862060547	-453.5444030761719	45.2898063659668	-157.9596099853516	-565.5072021484375	146.4714965820312	-93.18666839599609	-190.2198181152344	872.5411987304688	-140.6266326904297	-154.7918090820312	660.068115234375	-183.7303771972656	nan	nan	nan	nan	nan	nan	
341	3.4	-296.7667846679688	937.4503784179688	-211.8713836669922	-352.6427001953125	944.86279296875	-330.2953186035156	-321.9693908691406	1001.297912597656	-257.9188842773438	-118.0560531616211	1185.002075195312	-370.6152648925781	-330.2325134277344	1121.07763671875	-252.8040161132812	-294.7604675292969	1368.271728515625	-283.7843627929688	-156.5592041015625	1311.189331054688	-353.4041442871094	-307.2869873046875	1229.5439453125	-200.6137237548828	-354.3705139160156	1331.580200195312	-365.6051025390625	-308.1105041503906	1347.183959960938	-456.1250915527344	-372.9430541992188	1233.860473632812	-498.6319274902344	-405.1195983886719	1033.092407226562	-512.25830078125	-416.3902893066406	1024.3935546875	-428.6627807617188	-358.3001403808594	772.53271484375	-532.222412109375	-425.5375366210938	778.6993408203125	-548.1484985351562	-420.3530578613281	929.442626953125	-523.8712768554688	-388.1658020019531	617.4559326171875	-521.0610961914062	-442.0824890136719	710.8007202148438	-539.7316284179688	-378.9174499511719	697.5405883789062	-550.827880859375	-169.6429443359375	1355.7294921875	-166.6602935791016	-150.4243469238281	1290.651245117188	-105.0470428466797	-115.4550018310547	1024.140258789062	-71.83290863037109	-194.2211761474609	1014.093566894531	-121.5146942138672	-32.77046585083008	820.0798950195312	-201.1914672851562	-18.33824157714844	795.400390625	-130.1426086425781	-83.87031555175781	959.2459716796875	-83.8824462890625	6.554709911346436	654.2612915039062	-228.6752014160156	13.2460470199585	727.66748046875	-221.9891357421875	4.931132316589355	716.8863525390625	-153.9211120605469	-217.3760833740234	1574.709106445312	-237.9914093017578	-91.88251495361328	1573.647583007812	-405.5536804199219	-69.67752838134766	1572.813720703125	-306.7816162109375	-275.7402648925781	1573.295166015625	-371.7236022949219	-312.6810913085938	897.7033081054688	-464.24169921875	-101.4418258666992	899.8903198242188	-224.9118499755859	-179.5944213867188	922.6900634765625	-449.8796691894531	-125.3440551757812	471.7740173339844	-540.2330322265625	-181.0921478271484	597.1841430664062	-524.244873046875	-155.9892730712891	41.37173843383789	-568.581787109375	-131.5239715576172	251.0813598632812	-565.9544067382812	59.38728332519531	48.19962692260742	-550.4791259765625	2.152510643005371	32.18905639648438	-494.9171752929688	-34.25873565673828	40.13556671142578	-603.3564453125	-173.3864898681641	34.02869415283203	-495.3972473144531	-230.0458984375	417.2902526855469	-206.1095123291016	-505.1175842285156	112.7334976196289	-103.664924621582	-294.3253784179688	308.1203308105469	-199.1253662109375	-474.2212219238281	40.55669784545898	-270.1854553222656	-526.2958984375	56.93252944946289	-252.5868835449219	-452.0604553222656	46.27400588989258	-159.5937957763672	-559.169189453125	155.1980743408203	-100.0640411376953	-184.2599029541016	872.5994262695312	-145.8412322998047	-145.7649078369141	660.374267578125	-189.1965942382812	nan	nan	nan	nan	nan	nan	
